<?xml version="1.0" encoding="utf-8"?>
<svg viewBox="224.183 217.995 51.635 64.01" xmlns="http://www.w3.org/2000/svg">
  <path d="M 275.711 232.625 C 274.531 224.285 267.041 217.995 258.271 217.995 L 241.491 217.995 C 237.571 217.995 233.851 219.215 230.751 221.515 C 225.711 225.265 223.261 231.755 224.501 238.085 L 226.251 247.005 C 227.351 252.645 227.911 258.415 227.911 264.155 L 227.911 265.075 C 227.911 274.405 235.811 282.005 245.511 282.005 L 255.441 282.005 C 265.141 282.005 273.041 274.415 273.041 265.075 L 273.041 261.415 C 273.041 257.225 273.341 252.985 273.921 248.835 L 275.651 236.585 C 275.851 235.085 275.871 233.795 275.711 232.625 Z M 274.671 236.435 L 274.661 236.505 L 272.941 248.685 C 272.351 252.875 272.051 257.165 272.051 261.405 L 272.051 265.065 C 272.051 272.315 266.981 278.445 260.071 280.365 C 258.601 280.785 257.051 281.005 255.441 281.005 L 245.511 281.005 C 236.351 281.005 228.901 273.855 228.901 265.065 L 228.901 264.145 C 228.901 258.345 228.341 252.505 227.221 246.795 L 225.471 237.875 C 224.311 231.935 226.611 225.825 231.341 222.305 C 234.261 220.125 237.781 218.975 241.491 218.975 L 258.281 218.975 C 266.561 218.975 273.631 224.905 274.741 232.755 C 274.881 233.835 274.871 235.035 274.671 236.435 Z"/>
  <path d="M 274.741 232.765 C 273.621 224.905 266.551 218.975 258.271 218.975 L 241.491 218.975 C 237.781 218.975 234.261 220.125 231.341 222.305 C 226.611 225.825 224.311 231.935 225.471 237.885 L 227.221 246.805 C 228.341 252.515 228.901 258.355 228.901 264.155 L 228.901 265.075 C 228.901 273.865 236.351 281.015 245.511 281.015 L 255.441 281.015 C 257.041 281.015 258.601 280.795 260.071 280.375 C 266.981 278.455 272.051 272.325 272.051 265.075 L 272.051 261.415 C 272.051 257.175 272.351 252.885 272.941 248.695 L 274.661 236.515 L 274.671 236.445 C 274.871 235.035 274.881 233.835 274.741 232.765 Z M 272.301 237.885 L 270.801 248.945 C 270.301 252.685 270.031 256.505 270.031 260.295 L 270.031 263.605 C 270.031 272.055 263.161 278.925 254.711 278.925 L 246.111 278.925 C 244.631 278.925 243.221 278.715 241.871 278.325 C 235.481 276.485 230.791 270.575 230.791 263.605 L 230.791 262.775 C 230.791 257.595 230.311 252.385 229.341 247.295 L 227.821 239.245 C 226.751 233.535 228.871 227.655 233.261 224.265 C 235.961 222.175 239.201 221.075 242.611 221.075 L 257.161 221.075 C 262.651 221.075 267.581 224.015 270.281 228.485 C 271.331 230.225 272.051 232.195 272.341 234.315 C 272.501 235.385 272.481 236.545 272.301 237.885 Z" fill="#29ccc0"/>
  <path d="M 272.351 234.315 C 272.061 232.195 271.351 230.225 270.291 228.485 C 267.581 224.015 262.661 221.075 257.171 221.075 L 242.621 221.075 C 239.201 221.075 235.961 222.175 233.271 224.265 C 228.891 227.655 226.761 233.535 227.831 239.245 L 229.351 247.295 C 230.311 252.385 230.801 257.595 230.801 262.775 L 230.801 263.605 C 230.801 270.575 235.491 276.485 241.881 278.325 C 243.231 278.715 244.651 278.925 246.121 278.925 L 254.721 278.925 C 263.171 278.925 270.041 272.055 270.041 263.605 L 270.041 260.295 C 270.041 256.505 270.311 252.685 270.811 248.945 L 272.311 237.885 C 272.481 236.545 272.501 235.385 272.351 234.315 Z M 271.321 237.755 L 269.821 248.805 C 269.311 252.595 269.041 256.465 269.041 260.295 L 269.041 263.605 C 269.041 271.515 262.611 277.945 254.701 277.945 L 246.101 277.945 C 243.601 277.945 241.241 277.295 239.191 276.165 C 234.771 273.725 231.771 269.005 231.771 263.615 L 231.771 262.785 C 231.771 257.545 231.281 252.275 230.301 247.125 L 228.781 239.075 C 227.781 233.715 229.761 228.215 233.851 225.055 C 236.371 223.105 239.401 222.075 242.601 222.075 L 257.151 222.075 C 261.151 222.075 264.821 223.735 267.441 226.445 C 269.521 228.575 270.941 231.345 271.361 234.465 C 271.511 235.425 271.501 236.505 271.321 237.755 Z"/>
  <path d="M 271.381 234.455 C 270.961 231.335 269.541 228.555 267.461 226.435 C 266.326 224.959 262.009 222.051 257.813 222.051 L 241.461 222.074 C 240.592 222.074 236.805 222.669 234.267 224.744 C 229.643 227.4 227.035 235.141 229.256 241.645 L 230.735 249.695 C 231.08 251.885 231.441 255.027 231.639 258.159 C 231.822 261.323 231.595 264.35 231.967 266.187 C 232.647 270.353 235.49 274.192 239.214 276.178 C 240.021 276.716 243.209 278.059 246.131 277.935 L 254.731 277.935 C 262.641 277.935 269.071 271.505 269.071 263.595 L 269.071 260.295 C 269.071 256.465 269.341 252.595 269.851 248.805 L 271.351 237.755 C 271.501 236.505 271.511 235.425 271.381 234.455 Z" fill="#4b4c4a"/>
</svg>